<svg t="1613700342991" class="icon" viewBox="0 0 1024 1024" version="1.1"
  xmlns="http://www.w3.org/2000/svg" p-id="4797" width="200" height="200">
  <path d="M768 512c0 11.264-9.216 20.48-20.48 20.48H532.48v215.04c0 11.264-9.216 20.48-20.48 20.48s-20.48-9.216-20.48-20.48V532.48H276.48c-11.264 0-20.48-9.216-20.48-20.48s9.216-20.48 20.48-20.48h215.04V276.48c0-11.264 9.216-20.48 20.48-20.48s20.48 9.216 20.48 20.48v215.04h215.04c11.264 0 20.48 9.216 20.48 20.48z m204.8 0c0 253.952-206.848 460.8-460.8 460.8S51.2 765.952 51.2 512 258.048 51.2 512 51.2s460.8 206.848 460.8 460.8z m-40.96 0C931.84 280.576 743.424 92.16 512 92.16S92.16 280.576 92.16 512s188.416 419.84 419.84 419.84 419.84-188.416 419.84-419.84z" p-id="4798" fill="#2c3e50"></path>
</svg>