<svg t="1614753833500" class="icon" viewBox="0 0 1187 1024" version="1.1"
  xmlns="http://www.w3.org/2000/svg" p-id="3246" width="200" height="200">
  <path d="M348.89728 606.90432l2.12992 2.31424a30.72 30.72 0 0 1-45.2608 41.45152L31.60064 380.49792l-2.51904-2.6624a51.2 51.2 0 0 1 1.88416-69.65248L311.7056 21.83168l2.31424-2.12992a30.72 30.72 0 0 1 41.12384 1.69984l2.12992 2.31424a30.72 30.72 0 0 1-1.69984 41.12384L123.88352 301.09696h670.35136c212.48 0 385.69984 159.90784 385.69984 358.4 0 196.32128-169.3696 354.85696-378.63424 358.35904l-7.0656 0.06144H218.0096a30.72 30.72 0 0 1-2.94912-61.29664l2.94912-0.14336h576.22528c179.6096 0 324.25984-133.5296 324.25984-296.96 0-161.3824-141.06624-293.62176-317.5424-296.89856l-6.71744-0.06144-693.3504-0.02048 248.0128 244.36736z" p-id="3247" fill="#2c3e50"></path>
</svg>