<svg t="1614135506305" class="icon" viewBox="0 0 1024 1024" version="1.1" xmlns="http://www.w3.org/2000/svg" p-id="15107" width="200" height="200"><path d="M251.2 467.2l471.2 0L722.4 544 251.2 544 251.2 467.2 251.2 467.2 251.2 467.2zM251.2 467.2" p-id="15108" fill="#ffffff"></path><path d="M251.2 615.2l330.4 0 0 76.8L251.2 692 251.2 615.2 251.2 615.2 251.2 615.2zM251.2 615.2" p-id="15109" fill="#ffffff"></path><path d="M251.2 763.2l247.2 0 0 76.8L251.2 840 251.2 763.2 251.2 763.2 251.2 763.2zM251.2 763.2" p-id="15110" fill="#ffffff"></path><path d="M869.6 748l0 196-728 0L141.6 210.4l109.6 0 0 95.2c0 17.6 13.6 31.2 31.2 31.2l446.4 0c17.6 0 31.2-13.6 31.2-31.2L760 210.4l109.6 0L869.6 416l83.2-82.4L952.8 160c0-17.6-13.6-31.2-31.2-31.2L635.2 128.8C635.2 57.6 578.4 0 508.8 0c-71.2 0-127.2 57.6-127.2 128.8L93.6 128.8c-17.6 0-31.2 13.6-31.2 31.2l0 832c0 17.6 13.6 31.2 31.2 31.2l828.8 0c17.6 0 31.2-13.6 31.2-31.2L953.6 664.8 869.6 748zM506.4 64c34.4 0 64 29.6 64 64 0 34.4-28 64-64 64-34.4 0-64-29.6-64-64C444 93.6 472 64 506.4 64z" p-id="15111" fill="#ffffff"></path><path d="M980 542.4l-69.6-69.6 34.4-34.4c11.2-11.2 30.4-11.2 41.6 0l28 28c11.2 11.2 11.2 30.4 0 41.6L980 542.4 980 542.4zM778.4 744l-69.6-69.6 188.8-187.2 69.6 69.6L778.4 744 778.4 744zM653.6 800.8 696 688l68.8 68.8L653.6 800.8 653.6 800.8z" p-id="15112" fill="#ffffff"></path></svg>