<svg t="1614135534390" class="icon" viewBox="0 0 1024 1024" version="1.1" xmlns="http://www.w3.org/2000/svg" p-id="16699" width="200" height="200"><path d="M545.82 240.34C545.82 107.95 653.2 0 784.91 0S1024 107.95 1024 240.34 916.62 480.69 784.91 480.69 545.82 373.34 545.82 240.34z m395.12 0c0-86.48-70-156.85-156-156.85s-156 70.37-156 156.85 70 156.85 156 156.85 156-70.37 156-156.85zM0.59 375.13V105.56C0.59 47.11 47.46 0 105.6 0h268.17c58.14 0 105 47.11 105 105.56v269.57c0 58.45-46.87 105.56-105 105.56H105.6C48.06 480.69 0.59 433.57 0.59 375.13z m395.13-269.57a22.35 22.35 0 0 0-22-22.07H105.6a22.35 22.35 0 0 0-22 22.07v269.57a22.35 22.35 0 0 0 22 22.07h268.17a22.35 22.35 0 0 0 22-22.07z" fill="#ffffff" p-id="16700"></path><path d="M0.59 375.13V105.56C0.59 47.11 47.46 0 105.6 0h268.17c58.14 0 105 47.11 105 105.56v269.57c0 58.45-46.87 105.56-105 105.56H105.6C48.06 480.69 0.59 433.57 0.59 375.13z m395.13-269.57a22.35 22.35 0 0 0-22-22.07H105.6a22.35 22.35 0 0 0-22 22.07v269.57a22.35 22.35 0 0 0 22 22.07h268.17a22.35 22.35 0 0 0 22-22.07zM0 918.44V648.87c0-58.45 46.87-105.56 105-105.56h268.17c58.14 0 105 47.11 105 105.56v269.57c0 58.45-46.87 105.56-105 105.56H105C46.87 1024 0 976.29 0 918.44z m395.12-269.57a22.35 22.35 0 0 0-22-22.07H105a22.35 22.35 0 0 0-22 22.07v269.57a22.35 22.35 0 0 0 22 22.07h268.17a22.35 22.35 0 0 0 22-22.07z m150.7 269.57V648.87c0-58.45 46.87-105.56 105-105.56H919c58.14 0 105 47.11 105 105.56v269.57c0 58.45-46.87 105.56-105 105.56H650.83c-58.14 0-105.01-47.71-105.01-105.56z m395.12-269.57a22.35 22.35 0 0 0-22-22.07H650.83a22.35 22.35 0 0 0-22 22.07v269.57a22.35 22.35 0 0 0 22 22.07H919a22.35 22.35 0 0 0 22-22.07z" fill="#ffffff" p-id="16701"></path></svg>