<svg t="1614135392952" class="icon" viewBox="0 0 1024 1024" version="1.1" xmlns="http://www.w3.org/2000/svg" p-id="9008" width="200" height="200"><path d="M937.691429 383.634286H85.430857a31.305143 31.305143 0 0 1-30.208-21.942857 31.305143 31.305143 0 0 1 11.264-35.84L492.105143 6.582857a31.451429 31.451429 0 0 1 38.4 0l426.057143 319.634286c11.264 8.265143 15.36 22.528 11.264 35.84a31.451429 31.451429 0 0 1-30.208 21.504zM181.028571 319.634286h660.918858L511.561143 72.118857 181.101714 319.707429z" p-id="9009" fill="#ffffff"></path><path d="M266.020571 895.122286a32.109714 32.109714 0 0 1-32.182857-32.182857V351.305143c0-17.846857 14.336-32.182857 32.182857-32.182857 17.92 0 32.182857 14.336 32.182858 32.182857v511.488a32.768 32.768 0 0 1-32.182858 32.256z m-103.277714 0a32.109714 32.109714 0 0 1-32.182857-32.182857V351.305143c0-17.846857 14.262857-32.182857 32.182857-32.182857 17.846857 0 32.182857 14.336 32.182857 32.182857v511.488a32.768 32.768 0 0 1-32.182857 32.256z m251.099429 0a32.109714 32.109714 0 0 1-32.182857-32.182857V351.305143c0-17.846857 14.336-32.182857 32.182857-32.182857 17.92 0 32.182857 14.336 32.182857 32.182857v511.488c0 17.92-14.262857 32.256-32.182857 32.256z m195.437714 0a32.109714 32.109714 0 0 1-32.182857-32.182857V351.305143c0-17.846857 14.262857-32.182857 32.182857-32.182857s32.182857 14.336 32.182857 32.182857v511.488a32.768 32.768 0 0 1-32.182857 32.256z m147.309714 0a32.109714 32.109714 0 0 1-32.182857-32.182857V351.305143c0-17.846857 14.262857-32.182857 32.182857-32.182857s32.182857 14.336 32.182857 32.182857v511.488c0 17.92-14.262857 32.256-32.182857 32.256z m103.862857 0a32.109714 32.109714 0 0 1-32.256-32.182857V351.305143c0-17.846857 14.336-32.182857 32.182858-32.182857 17.92 0 32.256 14.336 32.256 32.182857v511.488c0 17.92-14.336 32.256-32.182858 32.256z" p-id="9010" fill="#ffffff"></path><path d="M991.378286 1022.976H31.744c-11.702857 0-21.942857-6.144-27.574857-16.310857a31.597714 31.597714 0 0 1 0.512-32.256l77.750857-127.853714a31.524571 31.524571 0 0 1 27.062857-15.36h804.132572c11.264 0 21.430857 5.632 27.062857 15.36l77.750857 127.853714c6.144 9.728 6.144 21.942857 0.512 32.182857a31.597714 31.597714 0 0 1-27.574857 16.384zM88.502857 959.049143h845.531429l-38.912-63.926857H127.414857l-38.838857 63.926857zM458.386286 219.940571a53.174857 53.174857 0 1 0 106.349714 0 53.174857 53.174857 0 0 0-106.349714 0z" p-id="9011" fill="#ffffff"></path></svg>