<svg t="1613715303695" class="icon" viewBox="0 0 1024 1024" version="1.1"
  xmlns="http://www.w3.org/2000/svg" p-id="5490" width="200" height="200">
  <path d="M913.76 98.96H114.24c-29.64 0-53.76 24.12-53.76 53.74v585.86c0 29.64 24.12 53.74 53.76 53.74h308.52l-23.24 112.74h-68.54c-5.52 0-10 4.48-10 10s4.48 10 10 10H697.02c5.52 0 10-4.48 10-10s-4.48-10-10-10h-68.54l-23.24-112.74h308.52c29.64 0 53.76-24.1 53.76-53.74V152.7c0-29.62-24.12-53.74-53.76-53.74zM608.06 905.04h-188.12l23.24-112.74h141.64l23.24 112.74z m339.46-166.48c0 18.6-15.14 33.74-33.76 33.74H114.24c-18.62 0-33.76-15.14-33.76-33.74V152.7c0-18.6 15.14-33.74 33.76-33.74h799.52c18.62 0 33.76 15.14 33.76 33.74v585.86z" fill="#23130D" p-id="5491"></path>
  <path d="M608.06 905.04h-188.12l23.24-112.74h141.64z" fill="#E1E1E5" p-id="5492"></path>
  <path d="M608.06 905.04h-8.46l-14.78-71.74h-141.64l-14.78 71.74h-8.46l23.24-112.74h141.64z" fill="#23130D" opacity=".2" p-id="5493"></path>
  <path d="M913.76 118.96H114.24c-18.62 0-33.76 15.14-33.76 33.74v585.86c0 18.6 15.14 33.74 33.76 33.74h799.52c18.62 0 33.76-15.14 33.76-33.74V152.7c0-18.6-15.14-33.74-33.76-33.74z m-344.6 627.7h-110.32c-5.52 0-10-4.48-10-10s4.48-10 10-10h110.32c5.52 0 10 4.48 10 10s-4.48 10-10 10z m353.6-53.56c0 5.52-4.48 10-10 10H115.24c-5.52 0-10-4.48-10-10V157.34c0-5.52 4.48-10 10-10h797.52c5.52 0 10 4.48 10 10v535.76z" fill="#E1E1E5" p-id="5494"></path>
  <path d="M913.76 751.8H114.24c-18.62 0-33.76-15.14-33.76-33.74v20.5c0 18.6 15.14 33.74 33.76 33.74h799.52c18.62 0 33.76-15.14 33.76-33.74v-20.5c0 18.6-15.14 33.74-33.76 33.74z" fill="#23130D" opacity=".2" p-id="5495"></path>
  <path d="M912.76 147.34H115.24c-5.52 0-10 4.48-10 10v535.76c0 5.52 4.48 10 10 10h797.52c5.52 0 10-4.48 10-10V157.34c0-5.52-4.48-10-10-10z m-10 535.76H125.24V167.34h777.52v515.76z" fill="#23130D" p-id="5496"></path>
  <path d="M364.76 315.82l28 28c6.04-10.26 13.36-19.66 21.74-28h-49.74z m0 0l28 28c6.04-10.26 13.36-19.66 21.74-28h-49.74z m0 0l28 28c6.04-10.26 13.36-19.66 21.74-28h-49.74z m0 0l28 28c6.04-10.26 13.36-19.66 21.74-28h-49.74z m0 0l28 28c6.04-10.26 13.36-19.66 21.74-28h-49.74zM125.24 167.34v515.76h777.52V167.34H125.24z m308.72 401.68l-16.62 28.78c-1.86 3.2-5.22 5-8.66 5a10.004 10.004 0 0 1-8.66-15l16.62-28.78a10.004 10.004 0 0 1 13.66-3.66 10.004 10.004 0 0 1 3.66 13.66z m-67.14-59.8l-28.78 16.6c-1.56 0.9-3.28 1.34-4.98 1.34-3.46 0-6.82-1.8-8.68-5a10.004 10.004 0 0 1 3.66-13.66l28.78-16.62a9.992 9.992 0 0 1 13.66 3.68c2.76 4.78 1.12 10.9-3.66 13.66zM512 630.48c-5.52 0-10-4.48-10-10v-33.22c0-5.52 4.48-10 10-10s10 4.48 10 10v33.22c0 1.24-0.22 2.4-0.62 3.5a10.024 10.024 0 0 1-9.38 6.5z m81.7-75.12a10 10 0 0 1 13.66 3.66l16.62 28.76a10.004 10.004 0 0 1-8.66 15c-3.46 0-6.82-1.78-8.66-5l-16.62-28.76a10.004 10.004 0 0 1 3.66-13.66z m63.48-46.16a10.004 10.004 0 0 1-3.66-13.66 10.004 10.004 0 0 1 13.66-3.66l28.78 16.62a10.004 10.004 0 0 1 3.66 13.66c-1.86 3.2-5.22 5-8.68 5-1.7 0-3.42-0.44-4.98-1.34l-15-8.66-13.78-7.96z m-6.86-95.36a137.66 137.66 0 0 1-16.74 65.94 139.234 139.234 0 0 1-51.56 53.3c-20.54 12.12-44.48 19.08-70.02 19.08-4.06 0-8.08-0.18-12.06-0.54-66.66-5.76-119.94-59.04-125.72-125.72-0.36-3.96-0.54-8-0.54-12.06a137.42 137.42 0 0 1 19.08-70.02c6.04-10.26 13.36-19.66 21.74-28h-86.44c-19.98 0-36.24-16.26-36.24-36.24v-6.54c0-8.46 2.9-16.24 7.76-22.4 6.64-8.44 16.94-13.86 28.48-13.86h367.88c19.98 0 36.24 16.26 36.24 36.26v6.54c0 19.98-16.26 36.24-36.24 36.24h-86.44c25.2 25.08 40.82 59.76 40.82 98.02z m-285.56-98.02l28 28c6.04-10.26 13.36-19.66 21.74-28h-49.74z m0 0l28 28c6.04-10.26 13.36-19.66 21.74-28h-49.74z m0 0l28 28c6.04-10.26 13.36-19.66 21.74-28h-49.74z m0 0l28 28c6.04-10.26 13.36-19.66 21.74-28h-49.74z" fill="#3594BF" p-id="5497"></path>
  <path d="M579.16 736.66c0 5.52-4.48 10-10 10h-110.32c-5.52 0-10-4.48-10-10s4.48-10 10-10h110.32c5.52 0 10 4.48 10 10zM695.94 236.78H328.06c-19.98 0-36.24 16.26-36.24 36.26v6.54c0 19.98 16.26 36.24 36.24 36.24h86.44c-25.2 25.08-40.82 59.76-40.82 98.02 0 76.28 62.06 138.32 138.32 138.32 76.28 0 138.32-62.04 138.32-138.32 0-38.26-15.62-72.94-40.82-98.02h86.44c19.98 0 36.24-16.26 36.24-36.24v-6.54c0-20-16.26-36.26-36.24-36.26z m-65.62 177.06c0 65.24-53.08 118.32-118.32 118.32s-118.32-53.08-118.32-118.32 53.08-118.32 118.32-118.32 118.32 53.08 118.32 118.32z m81.86-134.26c0 8.96-7.28 16.24-16.24 16.24h-111.88c-21-12.86-45.68-20.3-72.06-20.3s-51.06 7.44-72.06 20.3h-111.88c-8.96 0-16.24-7.28-16.24-16.24v-6.54c0-8.96 7.28-16.26 16.24-16.26h367.88c8.96 0 16.24 7.3 16.24 16.26v6.54z" fill="#23130D" p-id="5498"></path>
  <path d="M712.18 273.04v6.54c0 8.96-7.28 16.24-16.24 16.24h-111.88c-21-12.86-45.68-20.3-72.06-20.3s-51.06 7.44-72.06 20.3h-111.88c-8.96 0-16.24-7.28-16.24-16.24v-6.54c0-8.96 7.28-16.26 16.24-16.26h367.88c8.96 0 16.24 7.3 16.24 16.26z" fill="#E1E1E5" p-id="5499"></path>
  <path d="M712.18 273.04v6.54c0 8.96-7.28 16.24-16.24 16.24h-111.88c-21-12.86-45.68-20.3-72.06-20.3s-51.06 7.44-72.06 20.3h-111.88c-8.96 0-16.24-7.28-16.24-16.24v-6.54c0-0.82 0.06-1.62 0.18-2.4 1.16 7.82 7.92 13.84 16.06 13.84h111.88c21-12.86 45.68-20.3 72.06-20.3s51.06 7.44 72.06 20.3h111.88c8.14 0 14.9-6.02 16.06-13.84 0.12 0.78 0.18 1.58 0.18 2.4z" fill="#23130D" opacity=".2" p-id="5500"></path>
  <path d="M512 295.52c-65.24 0-118.32 53.08-118.32 118.32s53.08 118.32 118.32 118.32 118.32-53.08 118.32-118.32-53.08-118.32-118.32-118.32z m-8.7 108.32h17.44c22.16 0 40.2 18.04 40.2 40.22 0 21.74-17.36 39.46-38.92 40.14v24c0 5.54-4.48 10-10 10-5.54 0-10-4.46-10-10v-23.94h-28.92c-5.52 0-10-4.46-10-10 0-5.52 4.48-10 10-10h47.64c11.14 0 20.2-9.06 20.2-20.2 0-11.16-9.06-20.22-20.2-20.22h-17.44c-22.16 0-40.2-18.04-40.2-40.22 0-21.72 17.34-39.44 38.92-40.14v-24c0-5.54 4.46-10 10-10 5.52 0 10 4.46 10 10v23.94h28.92c5.52 0 10 4.48 10 10s-4.48 10-10 10h-47.64c-11.14 0-20.2 9.06-20.2 20.2 0 11.16 9.06 20.22 20.2 20.22z" fill="#F9C139" p-id="5501"></path>
  <path d="M526.6 517.56c-3.4 0-6.76-0.14-10.08-0.44-1.34 0.7-2.88 1.08-4.5 1.08-2.58 0-4.9-0.96-6.68-2.56-55.12-10.04-97.06-58.42-97.06-116.4 0-28.92 10.44-55.44 27.72-76-25.86 21.72-42.32 54.28-42.32 90.6 0 65.24 53.08 118.32 118.32 118.32 36.32 0 68.88-16.46 90.6-42.32-20.56 17.28-47.08 27.72-76 27.72z" fill="#23130D" opacity=".2" p-id="5502"></path>
  <path d="M560.94 444.06c0 21.74-17.36 39.46-38.92 40.14v24c0 5.54-4.48 10-10 10-5.54 0-10-4.46-10-10v-23.94h-28.92c-5.52 0-10-4.46-10-10 0-5.52 4.48-10 10-10h47.64c11.14 0 20.2-9.06 20.2-20.2 0-11.16-9.06-20.22-20.2-20.22h-17.44c-22.16 0-40.2-18.04-40.2-40.22 0-21.72 17.34-39.44 38.92-40.14v-24c0-5.54 4.46-10 10-10 5.52 0 10 4.46 10 10v23.94h28.92c5.52 0 10 4.48 10 10s-4.48 10-10 10h-47.64c-11.14 0-20.2 9.06-20.2 20.2 0 11.16 9.06 20.22 20.2 20.22h17.44c22.16 0 40.2 18.04 40.2 40.22zM522 587.26v33.22c0 5.52-4.48 10-10 10s-10-4.48-10-10v-33.22c0-5.52 4.48-10 10-10s10 4.48 10 10zM620.32 601.44c-1.58 0.92-3.3 1.34-5 1.34-3.46 0-6.82-1.78-8.66-5l-16.62-28.76a10 10 0 1 1 17.32-10l16.62 28.76c2.76 4.78 1.12 10.9-3.66 13.66zM699.62 522.16c-1.86 3.2-5.22 5-8.68 5-1.7 0-3.42-0.44-4.98-1.34l-28.78-16.62a10 10 0 1 1 10-17.32l28.78 16.62a10.004 10.004 0 0 1 3.66 13.66zM366.82 509.22l-28.78 16.6c-1.56 0.9-3.28 1.34-4.98 1.34-3.46 0-6.82-1.8-8.68-5a10.004 10.004 0 0 1 3.66-13.66l28.78-16.62a9.992 9.992 0 0 1 13.66 3.68c2.76 4.78 1.12 10.9-3.66 13.66zM433.96 569.02l-16.62 28.78c-1.86 3.2-5.22 5-8.66 5a10.004 10.004 0 0 1-8.66-15l16.62-28.78a10.004 10.004 0 0 1 13.66-3.66 10.004 10.004 0 0 1 3.66 13.66z" fill="#23130D" p-id="5503"></path>
  <path d="M610.18 423.84a10 10 0 0 1-10-10c0-48.612-39.548-88.16-88.16-88.16a10 10 0 0 1 0-20c59.64 0 108.16 48.52 108.16 108.16a10 10 0 0 1-10 10z" fill="#FFFFFF" p-id="5504"></path>
  <path d="M521.38 623.98a10.024 10.024 0 0 1-9.38 6.5c-5.52 0-10-4.48-10-10v-15.88L125.24 227.84v130.92l324.34 324.34h130.92l-59.12-59.12z m-154.56-114.76l-28.78 16.6c-1.56 0.9-3.28 1.34-4.98 1.34-3.46 0-6.82-1.8-8.68-5a10.004 10.004 0 0 1 3.66-13.66l28.78-16.62a9.992 9.992 0 0 1 13.66 3.68c2.76 4.78 1.12 10.9-3.66 13.66z m67.14 59.8l-16.62 28.78c-1.86 3.2-5.22 5-8.66 5a10.004 10.004 0 0 1-8.66-15l16.62-28.78a10.004 10.004 0 0 1 13.66-3.66 10.004 10.004 0 0 1 3.66 13.66zM373.68 413.84c0 4.06 0.18 8.1 0.54 12.06L125.24 176.92v-9.58h91.04l83.3 83.3a36.038 36.038 0 0 0-7.76 22.4v6.54c0 19.98 16.26 36.24 36.24 36.24h36.7l28 28a137.42 137.42 0 0 0-19.08 70.02zM582.02 533.08c-20.54 12.12-44.48 19.08-70.02 19.08-4.06 0-8.08-0.18-12.06-0.54l131.46 131.48h100.64l-150.02-150.02z m38.3 68.36c-1.58 0.92-3.3 1.34-5 1.34-3.46 0-6.82-1.78-8.66-5l-16.62-28.76a10 10 0 1 1 17.32-10l16.62 28.76c2.76 4.78 1.12 10.9-3.66 13.66zM488.44 167.34l69.44 69.44h-167.3l-69.44-69.44zM902.76 581.66v101.44h-65.86l-165.94-165.94 15 8.66c1.56 0.9 3.28 1.34 4.98 1.34 3.46 0 6.82-1.8 8.68-5 2.76-4.78 1.12-10.9-3.66-13.66l-28.78-16.62a10.004 10.004 0 0 0-13.66 3.66c-0.56 0.98-0.94 2-1.14 3.04l-18.8-18.8a137.66 137.66 0 0 0 16.74-65.94c0-38.26-15.62-72.94-40.82-98.02h27.42l265.84 265.84z" fill="#FFFFFF" opacity=".4" p-id="5505"></path>
</svg>