<svg t="1613615982538" class="icon" viewBox="0 0 1024 1024" version="1.1"
  xmlns="http://www.w3.org/2000/svg" p-id="2731" width="200" height="200">
  <path d="M160 246.272l221.28-44.992v259.904L160 462.816z" fill="#ffffff" p-id="2732"></path>
  <path d="M349.28 240.448v188.992L192 430.592V272.448l157.28-32m64-78.336L128 220.128v274.944l285.28-2.08V162.112zM832 142.304v283.552l-321.792 2.368v-220.48L832 142.304M896 64L446.208 155.424v337.28L896 489.408V64z" fill="#ffffff" p-id="2733"></path>
  <path d="M160 772.128v-209.728l221.28 1.632v254.784z" fill="#ffffff" p-id="2734"></path>
  <path d="M192 594.624l157.28 1.152v183.552L192 746.176v-151.552m-64-64.48v267.936l285.28 60.16V532.256L128 530.144z" fill="#ffffff" p-id="2735"></path>
  <path d="M510.208 596.96L832 599.328v281.76l-321.792-67.808v-216.32m-64-64.448v332.672L896 960V535.808l-449.792-3.296z" fill="#ffffff" p-id="2736"></path>
</svg>