<svg t="1614135278423" class="icon" viewBox="0 0 1024 1024" version="1.1" xmlns="http://www.w3.org/2000/svg" p-id="4799" width="200" height="200"><path d="M204.749312 870.4v-20.736-5.12-25.6h1.1264a282.368 282.368 0 0 1 178.432-236.8512A179.2 179.2 0 0 1 307.149312 435.2a179.2 179.2 0 0 1 179.2-179.2 179.2 179.2 0 0 1 179.2 179.2 179.2 179.2 0 0 1-77.1072 147.2 282.3168 282.3168 0 0 1 178.2784 236.8512h1.2288v51.2z m510.5152-51.2a230.7584 230.7584 0 0 0-228.9664-204.8 230.7584 230.7584 0 0 0-228.9664 204.8zM358.298112 435.2a128 128 0 0 0 128 128 128 128 0 0 0 128-128 128 128 0 0 0-128-128 128 128 0 0 0-127.9488 128z" fill="#ffffff" p-id="4800"></path><path d="M920.218112 819.2a235.0592 235.0592 0 0 0 1.4336-25.6 230.656 230.656 0 0 0-230.4-230.4v-51.2a128 128 0 0 0 128-128 128 128 0 0 0-128-128V204.8a179.2 179.2 0 0 1 179.2 179.2 179.2 179.2 0 0 1-77.1584 147.2 281.6 281.6 0 0 1 129.0752 101.8368A279.7056 279.7056 0 0 1 972.800512 793.6c0 8.6528-0.4096 17.2544-1.1776 25.6z" fill="#ffffff" p-id="4801"></path><path d="M281.600512 204.8512v51.2a128 128 0 1 0 0 256v51.2a230.656 230.656 0 0 0-230.4 230.4 233.8304 233.8304 0 0 0 1.4336 25.6H1.178112a283.7504 283.7504 0 0 1-1.1776-25.6 279.6544 279.6544 0 0 1 50.3808-160.6144 281.9584 281.9584 0 0 1 129.1264-101.888A179.2 179.2 0 0 1 281.600512 204.8512z" fill="#ffffff" p-id="4802"></path></svg>