<svg t="1614135477095" class="icon" viewBox="0 0 1024 1024" version="1.1" xmlns="http://www.w3.org/2000/svg" p-id="13646" width="200" height="200"><path d="M582.4 696.32c-3.84 19.2-15.36 35.84-34.56 35.84-19.2 0-35.84-8.96-39.68-26.88l-79.36-254.72-37.12 61.44c-7.68 12.8-20.48 20.48-34.56 20.48H149.76c-21.76 0-39.68-17.92-39.68-39.68 0-21.76 17.92-39.68 39.68-39.68h184.32l76.8-129.28c10.24-14.08 17.92-26.88 30.72-30.72 3.84-1.28 15.36-1.28 20.48 3.84 10.24 7.68 16.64 19.2 21.76 39.68l46.08 156.16m30.72 52.48l25.6-64c6.4-15.36 20.48-25.6 37.12-25.6h248.32c21.76 0 39.68 17.92 39.68 39.68 0 21.76-17.92 39.68-39.68 39.68H650.24l-67.84 171.52c-6.4 16.64-23.04 26.88-40.96 25.6-17.92-1.28-32-15.36-35.84-33.28m40.96 34.56" fill="#ffffff" p-id="13647"></path><path d="M971.52 904.96H51.2C24.32 904.96 2.56 883.2 2.56 856.32v-691.2c0-26.88 21.76-48.64 48.64-48.64h920.32c26.88 0 48.64 21.76 48.64 48.64v689.92c0 28.16-21.76 49.92-48.64 49.92zM71.68 835.84h878.08V186.88H71.68v648.96z" fill="#ffffff" p-id="13648"></path></svg>